<svg id="visual" viewBox="0 0 900 2400" width="900" height="2400" xmlns="http://www.w3.org/2000/svg" xmlns:xlink="http://www.w3.org/1999/xlink" version="1.1"><g><g transform="translate(782 398)"><path d="M0 -48.6L42.1 -24.3L42.1 24.3L0 48.6L-42.1 24.3L-42.1 -24.3Z" fill="none" stroke="#cbd5e1" stroke-width="3"></path></g><g transform="translate(574 165)"><path d="M0 -28L24.2 -14L24.2 14L0 28L-24.2 14L-24.2 -14Z" fill="none" stroke="#cbd5e1" stroke-width="3"></path></g><g transform="translate(220 342)"><path d="M0 -44L38.1 -22L38.1 22L0 44L-38.1 22L-38.1 -22Z" fill="none" stroke="#cbd5e1" stroke-width="3"></path></g><g transform="translate(835 206)"><path d="M0 -35L30.3 -17.5L30.3 17.5L0 35L-30.3 17.5L-30.3 -17.5Z" stroke="#cbd5e1" fill="none" stroke-width="3"></path></g><g transform="translate(613 66)"><path d="M0 -21L18.2 -10.5L18.2 10.5L0 21L-18.2 10.5L-18.2 -10.5Z" stroke="#cbd5e1" fill="none" stroke-width="3"></path></g><g transform="translate(774 77)"><path d="M0 -43L37.2 -21.5L37.2 21.5L0 43L-37.2 21.5L-37.2 -21.5Z" stroke="#cbd5e1" fill="none" stroke-width="3"></path></g><g transform="translate(117 535)"><path d="M0 -29L25.1 -14.5L25.1 14.5L0 29L-25.1 14.5L-25.1 -14.5Z" stroke="#cbd5e1" fill="none" stroke-width="3"></path></g><g transform="translate(101 265)"><path d="M0 -43L37.2 -21.5L37.2 21.5L0 43L-37.2 21.5L-37.2 -21.5Z" stroke="#cbd5e1" fill="none" stroke-width="3"></path></g><g transform="translate(127 418)"><path d="M0 -37L32 -18.5L32 18.5L0 37L-32 18.5L-32 -18.5Z" stroke="#cbd5e1" fill="none" stroke-width="3"></path></g><g transform="translate(315 539)"><path d="M0 -42L36.4 -21L36.4 21L0 42L-36.4 21L-36.4 -21Z" stroke="#cbd5e1" fill="none" stroke-width="3"></path></g><!-- Second section - additional pattern (600-1200 height) --><g transform="translate(450 750)"><path d="M0 -50L43.3 -25L43.3 25L0 50L-43.3 25L-43.3 -25Z" fill="none" stroke="#cbd5e1" stroke-width="3"></path></g><g transform="translate(280 820)"><path d="M0 -32L27.7 -16L27.7 16L0 32L-27.7 16L-27.7 -16Z" fill="none" stroke="#cbd5e1" stroke-width="3"></path></g><g transform="translate(650 680)"><path d="M0 -26L22.5 -13L22.5 13L0 26L-22.5 13L-22.5 -13Z" fill="none" stroke="#cbd5e1" stroke-width="3"></path></g><g transform="translate(750 920)"><path d="M0 -38L32.9 -19L32.9 19L0 38L-32.9 19L-32.9 -19Z" stroke="#cbd5e1" fill="none" stroke-width="3"></path></g><g transform="translate(180 750)"><path d="M0 -24L20.8 -12L20.8 12L0 24L-20.8 12L-20.8 -12Z" stroke="#cbd5e1" fill="none" stroke-width="3"></path></g><g transform="translate(580 900)"><path d="M0 -45L38.9 -22.5L38.9 22.5L0 45L-38.9 22.5L-38.9 -22.5Z" stroke="#cbd5e1" fill="none" stroke-width="3"></path></g><g transform="translate(850 800)"><path d="M0 -30L26 -15L26 15L0 30L-26 15L-26 -15Z" stroke="#cbd5e1" fill="none" stroke-width="3"></path></g><g transform="translate(380 650)"><path d="M0 -35L30.3 -17.5L30.3 17.5L0 35L-30.3 17.5L-30.3 -17.5Z" stroke="#cbd5e1" fill="none" stroke-width="3"></path></g><g transform="translate(720 750)"><path d="M0 -28L24.2 -14L24.2 14L0 28L-24.2 14L-24.2 -14Z" stroke="#cbd5e1" fill="none" stroke-width="3"></path></g><g transform="translate(480 850)"><path d="M0 -40L34.6 -20L34.6 20L0 40L-34.6 20L-34.6 -20Z" stroke="#cbd5e1" fill="none" stroke-width="3"></path></g><!-- Third section - additional pattern (1200-1800 height) --><g transform="translate(320 1380)"><path d="M0 -48L41.6 -24L41.6 24L0 48L-41.6 24L-41.6 -24Z" fill="none" stroke="#cbd5e1" stroke-width="3"></path></g><g transform="translate(700 1250)"><path d="M0 -32L27.7 -16L27.7 16L0 32L-27.7 16L-27.7 -16Z" fill="none" stroke="#cbd5e1" stroke-width="3"></path></g><g transform="translate(800 1480)"><path d="M0 -29L25.1 -14.5L25.1 14.5L0 29L-25.1 14.5L-25.1 -14.5Z" fill="none" stroke="#cbd5e1" stroke-width="3"></path></g><g transform="translate(200 1320)"><path d="M0 -40L34.6 -20L34.6 20L0 40L-34.6 20L-34.6 -20Z" stroke="#cbd5e1" fill="none" stroke-width="3"></path></g><g transform="translate(550 1480)"><path d="M0 -35L30.3 -17.5L30.3 17.5L0 35L-30.3 17.5L-30.3 -17.5Z" stroke="#cbd5e1" fill="none" stroke-width="3"></path></g><g transform="translate(680 1350)"><path d="M0 -44L38.1 -22L38.1 22L0 44L-38.1 22L-38.1 -22Z" stroke="#cbd5e1" fill="none" stroke-width="3"></path></g><g transform="translate(420 1200)"><path d="M0 -26L22.5 -13L22.5 13L0 26L-22.5 13L-22.5 -13Z" stroke="#cbd5e1" fill="none" stroke-width="3"></path></g><g transform="translate(130 1450)"><path d="M0 -37L32 -18.5L32 18.5L0 37L-32 18.5L-32 -18.5Z" stroke="#cbd5e1" fill="none" stroke-width="3"></path></g><g transform="translate(750 1120)"><path d="M0 -31L26.8 -15.5L26.8 15.5L0 31L-26.8 15.5L-26.8 -15.5Z" stroke="#cbd5e1" fill="none" stroke-width="3"></path></g><g transform="translate(600 1300)"><path d="M0 -42L36.4 -21L36.4 21L0 42L-36.4 21L-36.4 -21Z" stroke="#cbd5e1" fill="none" stroke-width="3"></path></g><!-- Fourth section - additional pattern (1800-2400 height) --><g transform="translate(550 1950)"><path d="M0 -46L39.8 -23L39.8 23L0 46L-39.8 23L-39.8 -23Z" fill="none" stroke="#cbd5e1" stroke-width="3"></path></g><g transform="translate(750 2050)"><path d="M0 -28L24.2 -14L24.2 14L0 28L-24.2 14L-24.2 -14Z" fill="none" stroke="#cbd5e1" stroke-width="3"></path></g><g transform="translate(280 1850)"><path d="M0 -33L28.6 -16.5L28.6 16.5L0 33L-28.6 16.5L-28.6 -16.5Z" fill="none" stroke="#cbd5e1" stroke-width="3"></path></g><g transform="translate(820 1950)"><path d="M0 -39L33.8 -19.5L33.8 19.5L0 39L-33.8 19.5L-33.8 -19.5Z" stroke="#cbd5e1" fill="none" stroke-width="3"></path></g><g transform="translate(450 2100)"><path d="M0 -30L26 -15L26 15L0 30L-26 15L-26 -15Z" stroke="#cbd5e1" fill="none" stroke-width="3"></path></g><g transform="translate(650 1900)"><path d="M0 -44L38.1 -22L38.1 22L0 44L-38.1 22L-38.1 -22Z" stroke="#cbd5e1" fill="none" stroke-width="3"></path></g><g transform="translate(180 2000)"><path d="M0 -25L21.7 -12.5L21.7 12.5L0 25L-21.7 12.5L-21.7 -12.5Z" stroke="#cbd5e1" fill="none" stroke-width="3"></path></g><g transform="translate(350 2150)"><path d="M0 -36L31.2 -18L31.2 18L0 36L-31.2 18L-31.2 -18Z" stroke="#cbd5e1" fill="none" stroke-width="3"></path></g><g transform="translate(700 2000)"><path d="M0 -27L23.4 -13.5L23.4 13.5L0 27L-23.4 13.5L-23.4 -13.5Z" stroke="#cbd5e1" fill="none" stroke-width="3"></path></g><g transform="translate(500 1850)"><path d="M0 -41L35.5 -20.5L35.5 20.5L0 41L-35.5 20.5L-35.5 -20.5Z" stroke="#cbd5e1" fill="none" stroke-width="3"></path></g></g></svg>